<svg version="1.1" id="Layer_1" xmlns="http://www.w3.org/2000/svg" xmlns:xlink="http://www.w3.org/1999/xlink" x="0px" y="0px"
	 viewBox="0 0 469 281" enable-background="new 0 0 469 281"
	 preserveAspectRatio="xMidYMid meet">
<g>
	<polygon display="none" fill-rule="evenodd" clip-rule="evenodd" points="-120.958,-51.285 585.302,-51.285 585.302,345.819 
		-120.958,345.819 -120.958,-51.285 	"/>
	<path fill-rule="evenodd" clip-rule="evenodd" d="M451.033,51.159h10.523c1.084,0,1.972,1.472,1.972,3.273v17.457
		c0,1.8-0.888,3.273-1.972,3.273h-10.523c-1.086,0-1.973-1.473-1.973-3.273V54.432C449.06,52.631,449.947,51.159,451.033,51.159
		L451.033,51.159z M364.224,193.04h10.522c1.085,0,1.973,1.473,1.973,3.273v17.457c0,1.8-0.888,3.273-1.973,3.273h-10.522
		c-1.085,0-1.973-1.474-1.973-3.273v-17.457C362.251,194.513,363.139,193.04,364.224,193.04L364.224,193.04z M277.416,193.04h10.521
		c1.084,0,1.973,1.473,1.973,3.273v17.457c0,1.8-0.889,3.273-1.973,3.273h-10.521c-1.085,0-1.975-1.474-1.975-3.273v-17.457
		C275.441,194.513,276.331,193.04,277.416,193.04L277.416,193.04z M248.479,193.04H259c1.086,0,1.975,1.473,1.975,3.273v17.457
		c0,1.8-0.889,3.273-1.975,3.273h-10.521c-1.086,0-1.973-1.474-1.973-3.273v-17.457C246.506,194.513,247.393,193.04,248.479,193.04
		L248.479,193.04z M219.542,193.04h10.521c1.086,0,1.973,1.473,1.973,3.273v17.457c0,1.8-0.887,3.273-1.973,3.273h-10.521
		c-1.086,0-1.975-1.474-1.975-3.273v-17.457C217.568,194.513,218.456,193.04,219.542,193.04L219.542,193.04z M190.605,193.04h10.522
		c1.084,0,1.974,1.473,1.974,3.273v17.457c0,1.8-0.889,3.273-1.974,3.273h-10.522c-1.084,0-1.972-1.474-1.972-3.273v-17.457
		C188.633,194.513,189.521,193.04,190.605,193.04L190.605,193.04z M161.67,193.04h10.522c1.085,0,1.973,1.473,1.973,3.273v17.457
		c0,1.8-0.888,3.273-1.973,3.273H161.67c-1.086,0-1.974-1.474-1.974-3.273v-17.457C159.696,194.513,160.583,193.04,161.67,193.04
		L161.67,193.04z M103.797,193.04h10.522c1.084,0,1.972,1.473,1.972,3.273v17.457c0,1.8-0.888,3.273-1.972,3.273h-10.522
		c-1.085,0-1.973-1.474-1.973-3.273v-17.457C101.824,194.513,102.712,193.04,103.797,193.04L103.797,193.04z M74.859,193.04h10.524
		c1.085,0,1.973,1.473,1.973,3.273v17.457c0,1.8-0.887,3.273-1.973,3.273H74.859c-1.084,0-1.971-1.474-1.971-3.273v-17.457
		C72.888,194.513,73.775,193.04,74.859,193.04L74.859,193.04z M16.987,193.04h10.523c1.085,0,1.973,1.472,1.973,3.272v17.458
		c0,1.8-0.888,3.273-1.973,3.273H16.987c-1.085,0-1.972-1.474-1.972-3.273v-17.458C15.015,194.512,15.902,193.04,16.987,193.04
		L16.987,193.04z M72.211,43.238L72.211,43.238h48.729v58.456l10.828-26.953c0.286,0.268,0.616,0.421,0.965,0.421h10.522
		c1.085,0,1.972-1.473,1.972-3.273V54.432c0-1.801-0.887-3.273-1.972-3.273h-2.015l3.182-7.921h0.001h48.728v7.921h-2.547
		c-1.084,0-1.972,1.472-1.972,3.273v17.457c0,1.8,0.888,3.273,1.972,3.273h2.547v89.653h90.114v-7.337H242.59
		c-22.534,0-46.912-26.181-46.912-48.728V91.965c0-5.573,1.519-11.31,4.144-16.804h1.306c1.084,0,1.974-1.473,1.974-3.273v-2.6
		c3.817-5.948,8.86-11.395,14.541-15.753c-0.049,0.285-0.075,0.586-0.075,0.896v17.457c0,1.8,0.888,3.273,1.975,3.273h10.521
		c1.086,0,1.973-1.473,1.973-3.273V54.432c0-1.801-0.887-3.273-1.973-3.273h-9.099c7.376-4.898,15.573-7.921,23.442-7.921h224.484
		v57.198H244.407v8.314h37.88c23.203,0,49.707,25.537,49.707,48.728v16.784c0,10.376-5.261,21.323-13.146,30.208v-8.156
		c0-1.801-0.889-3.273-1.974-3.273h-10.522c-1.086,0-1.973,1.473-1.973,3.273v17.457c0,0.937,0.24,1.783,0.623,2.381
		c-6.922,4.255-14.469,6.838-21.735,6.838h-90.114h-48.728v-6.586c0.487-0.598,0.804-1.557,0.804-2.633v-17.457
		c0-1.077-0.317-2.037-0.804-2.635v-19.417v-9.729l-11.452,28.507h-0.239c-1.084,0-1.974,1.473-1.974,3.273v2.235l-9.819,24.44
		h-0.001H72.212v-58.456L58.42,198.866v-2.554c0-1.801-0.888-3.272-1.973-3.272H45.923c-1.084,0-1.972,1.472-1.972,3.272v17.458
		c0,1.8,0.887,3.273,1.972,3.273h5.194l-2.389,5.945h-0.001H0L72.211,43.238L72.211,43.238z M422.096,51.159h10.523
		c1.085,0,1.972,1.472,1.972,3.273v17.457c0,1.8-0.887,3.273-1.972,3.273h-10.523c-1.085,0-1.973-1.473-1.973-3.273V54.432
		C420.124,52.631,421.011,51.159,422.096,51.159L422.096,51.159z M393.16,51.159h10.523c1.085,0,1.972,1.472,1.972,3.273v17.457
		c0,1.8-0.887,3.273-1.972,3.273H393.16c-1.086,0-1.973-1.473-1.973-3.273V54.432C391.187,52.631,392.074,51.159,393.16,51.159
		L393.16,51.159z M364.224,51.159h10.522c1.085,0,1.973,1.472,1.973,3.273v17.457c0,1.8-0.888,3.273-1.973,3.273h-10.522
		c-1.085,0-1.973-1.473-1.973-3.273V54.432C362.251,52.631,363.139,51.159,364.224,51.159L364.224,51.159z M335.288,51.159h10.522
		c1.084,0,1.974,1.472,1.974,3.273v17.457c0,1.8-0.89,3.273-1.974,3.273h-10.522c-1.086,0-1.973-1.473-1.973-3.273V54.432
		C333.315,52.631,334.202,51.159,335.288,51.159L335.288,51.159z M306.351,51.159h10.522c1.085,0,1.974,1.472,1.974,3.273v17.457
		c0,1.8-0.889,3.273-1.974,3.273h-10.522c-1.086,0-1.973-1.473-1.973-3.273V54.432C304.378,52.631,305.265,51.159,306.351,51.159
		L306.351,51.159z M277.416,51.159h10.521c1.084,0,1.973,1.472,1.973,3.273v17.457c0,1.8-0.889,3.273-1.973,3.273h-10.521
		c-1.085,0-1.975-1.473-1.975-3.273V54.432C275.441,52.631,276.331,51.159,277.416,51.159L277.416,51.159z M248.479,51.159H259
		c1.086,0,1.975,1.472,1.975,3.273v17.457c0,1.8-0.889,3.273-1.975,3.273h-10.521c-1.086,0-1.973-1.473-1.973-3.273V54.432
		C246.506,52.631,247.393,51.159,248.479,51.159L248.479,51.159z M161.67,51.159h10.522c1.085,0,1.973,1.472,1.973,3.273v17.457
		c0,1.8-0.888,3.273-1.973,3.273H161.67c-1.086,0-1.974-1.473-1.974-3.273V54.432C159.696,52.631,160.583,51.159,161.67,51.159
		L161.67,51.159z M103.797,51.159h10.522c1.084,0,1.972,1.472,1.972,3.273v17.457c0,1.8-0.888,3.273-1.972,3.273h-10.522
		c-1.085,0-1.973-1.473-1.973-3.273V54.432C101.824,52.631,102.712,51.159,103.797,51.159L103.797,51.159z M74.859,51.159h10.524
		c1.085,0,1.973,1.472,1.973,3.273v17.457c0,1.8-0.887,3.273-1.973,3.273H74.859c-1.084,0-1.971-1.473-1.971-3.273V54.432
		C72.888,52.631,73.775,51.159,74.859,51.159L74.859,51.159z M335.27,108.75h13.615h35.112h58.251v48.728h-58.251v65.512H335.27
		v-5.946l0.018,0.001h10.522c1.084,0,1.974-1.474,1.974-3.273v-17.457c0-1.801-0.89-3.273-1.974-3.273h-10.522l-0.018,0.001V108.75
		L335.27,108.75z"/>
	<path d="M33.997,241.976c0,0.403-0.218,0.61-0.665,0.61c-1.667,0-4.391-0.099-8.171-0.283c-3.541-0.175-6.265-0.24-8.172-0.196
		l-2.332,0.032c-1.493,0.022-2.277,0.055-2.364,0.099c-0.425,0.163-0.643,0.839-0.643,2.005v7.691c0,1.449,0.316,2.18,0.926,2.18
		c2.07,0,5.175-0.099,9.337-0.294c4.162-0.186,7.278-0.284,9.337-0.284c0.447,0,0.675,0.164,0.675,0.513
		c0,0.359-0.033,0.894-0.087,1.612c-0.054,0.708-0.076,1.242-0.076,1.612c0,0.381,0.022,0.959,0.065,1.732
		c0.044,0.784,0.065,1.362,0.065,1.743c0,0.251-0.229,0.382-0.675,0.382c-1.471,0-3.694-0.044-6.69-0.131
		c-2.985-0.076-5.229-0.12-6.711-0.12c-2.746,0-4.304,0.021-4.663,0.055c-0.959,0.108-1.438,0.501-1.438,1.188
		c0,1.917,0.054,4.783,0.163,8.618c0.109,3.824,0.164,6.7,0.164,8.618c0,0.632-0.262,0.959-0.773,0.959
		c-0.425,0-1.057-0.055-1.896-0.142c-0.839-0.099-1.482-0.153-1.929-0.153c-0.37,0-0.915,0.033-1.667,0.099
		c-0.741,0.065-1.297,0.098-1.656,0.098c-0.534,0-0.795-0.229-0.795-0.697c0-2.364,0.098-5.916,0.305-10.666
		c0.196-4.751,0.294-8.303,0.294-10.656c0-2.2-0.218-9.326-0.665-21.387v-0.414c-0.021-0.447,0.24-0.708,0.795-0.773
		c0.174,0,1.525,0.032,4.053,0.098c3.345,0.065,6.439,0.076,9.293,0.032c3.846-0.043,8.749-0.261,14.708-0.643
		c0.807-0.065,1.264,0.294,1.373,1.057c-0.021,0.578,0.021,1.449,0.131,2.615C33.866,240.429,33.997,241.485,33.997,241.976
		L33.997,241.976z"/>
	<path d="M80.345,257.807c0,6.319-2.027,11.756-6.069,16.31c-4.216,4.729-9.446,7.094-15.7,7.094
		c-6.276,0-11.517-2.354-15.711-7.061c-4.042-4.532-6.058-9.98-6.058-16.343c0-6.298,2.038-11.734,6.124-16.311
		c4.216-4.739,9.424-7.114,15.646-7.114c6.232,0,11.462,2.375,15.667,7.114C78.308,246.051,80.345,251.487,80.345,257.807
		L80.345,257.807z M72.653,257.72c0-4.173-1.297-7.802-3.9-10.885c-2.724-3.279-6.134-4.925-10.242-4.925
		c-4.064,0-7.452,1.667-10.154,4.979c-2.55,3.116-3.824,6.755-3.824,10.917c0,4.151,1.274,7.779,3.824,10.884
		c2.702,3.323,6.09,4.979,10.154,4.979c4.129,0,7.55-1.656,10.274-4.979C71.367,265.586,72.653,261.925,72.653,257.72L72.653,257.72
		z"/>
	<path d="M115.264,241.464c0,0.555-0.185,0.839-0.566,0.839c-0.599,0-4.369-0.131-11.309-0.393
		c-0.185,6.493-0.283,11.701-0.283,15.613c0,2.451,0.087,6.123,0.272,11.015c0.185,4.893,0.272,8.563,0.272,11.005
		c0,0.446-0.306,0.675-0.926,0.675c-0.381,0-0.97-0.032-1.754-0.098c-0.784-0.065-1.383-0.099-1.787-0.099
		c-0.381,0-0.97,0.033-1.754,0.099c-0.795,0.065-1.373,0.098-1.765,0.098c-0.523,0-0.795-0.261-0.795-0.795
		c0-2.43,0.109-6.068,0.306-10.938c0.207-4.859,0.305-8.51,0.305-10.961c0-3.792-0.12-8.989-0.349-15.613
		c-5.491,0.349-9.511,0.513-12.072,0.513c-0.251,0-0.381-0.109-0.381-0.316c0-0.382,0.098-0.938,0.283-1.656
		c0.24-0.937,0.381-1.492,0.425-1.667c0.033-0.741,0.185-1.775,0.447-3.094c0.098-0.272,0.283-0.415,0.534-0.415l0.393,0.033
		c7.528,0.446,12.497,0.665,14.905,0.665c2.125,0,5.6-0.153,10.438-0.479c3.291-0.207,4.663-0.316,4.118-0.316
		c0.545,0,0.861,0.196,0.926,0.577c-0.043-0.239-0.065,0.796-0.065,3.095c0,0.283,0.033,0.708,0.098,1.297
		C115.232,240.723,115.264,241.169,115.264,241.464L115.264,241.464z"/>
	<path d="M161.297,257.807c0,6.319-2.027,11.756-6.069,16.31c-4.217,4.729-9.446,7.094-15.7,7.094
		c-6.276,0-11.517-2.354-15.711-7.061c-4.042-4.532-6.058-9.98-6.058-16.343c0-6.298,2.038-11.734,6.124-16.311
		c4.216-4.739,9.424-7.114,15.646-7.114c6.232,0,11.462,2.375,15.667,7.114C159.26,246.051,161.297,251.487,161.297,257.807
		L161.297,257.807z M153.605,257.72c0-4.173-1.296-7.802-3.9-10.885c-2.724-3.279-6.134-4.925-10.242-4.925
		c-4.064,0-7.452,1.667-10.154,4.979c-2.55,3.116-3.824,6.755-3.824,10.917c0,4.151,1.274,7.779,3.824,10.884
		c2.702,3.323,6.09,4.979,10.154,4.979c4.129,0,7.55-1.656,10.274-4.979C152.319,265.586,153.605,261.925,153.605,257.72
		L153.605,257.72z"/>
	<path d="M205.608,278.649c0.043,0.469-0.229,0.708-0.806,0.708c-0.316,0-1.089-0.306-2.31-0.915
		c-1.221-0.6-2.005-1.035-2.343-1.286c-3.922,2.659-8.553,3.988-13.924,3.988c-6.254,0-11.407-2.343-15.45-7.028
		c-3.824-4.423-5.742-9.816-5.742-16.179c0-6.516,1.885-11.985,5.655-16.408c3.977-4.675,9.152-7.018,15.537-7.018
		c3.28,0,6.439,0.763,9.468,2.311c3.029,1.547,5.448,3.661,7.256,6.341c0.283,0.403,0.425,0.708,0.425,0.926
		c0,0.295-0.763,1.275-2.288,2.953c-1.525,1.667-2.397,2.506-2.637,2.506c-0.164,0-0.817-0.654-1.939-1.95
		c-1.362-1.58-2.659-2.778-3.9-3.606c-1.929-1.297-3.955-1.95-6.058-1.95c-4.032,0-7.322,1.678-9.904,5.045
		c-2.332,3.061-3.508,6.679-3.508,10.852c0,4.063,1.198,7.659,3.606,10.786c2.614,3.389,5.905,5.077,9.86,5.077
		c3.9,0,7.475-1.067,10.732-3.192c-0.043-0.577-0.229-2.593-0.545-6.058c-0.25-2.474-0.381-4.489-0.381-6.036
		c0-0.359,0.229-0.545,0.697-0.545c0.403,0,1.014,0.021,1.82,0.076c0.817,0.055,1.417,0.088,1.819,0.088
		c0.403,0,1.024-0.022,1.852-0.065c0.828-0.044,1.449-0.065,1.853-0.065c0.446,0,0.675,0.338,0.675,1.023
		c0,0.741-0.033,1.863-0.087,3.367c-0.055,1.492-0.076,2.614-0.076,3.366c0,3.062,0.207,7.213,0.61,12.442L205.608,278.649
		L205.608,278.649z"/>
	<path d="M245.159,279.968c0,0.163-0.175,0.25-0.513,0.25c-0.402,0-1.023-0.032-1.852-0.098s-1.449-0.099-1.853-0.099
		c-0.446,0-1.111,0.033-1.994,0.099c-0.882,0.065-1.547,0.098-1.993,0.098c-0.49,0-0.861-0.261-1.122-0.795
		c-0.676-1.449-2.615-5.928-5.808-13.445c-0.316-0.763-1.101-1.23-2.332-1.405c-0.272-0.021-1.242-0.021-2.898-0.021
		c-2.941,0-4.685,0.032-5.241,0.12c-0.446,0.064-0.665,0.609-0.665,1.634c0,1.482,0.065,3.716,0.208,6.679
		c0.13,2.975,0.207,5.187,0.207,6.657c0,0.446-0.218,0.676-0.643,0.676c-0.425,0-1.068-0.055-1.929-0.142
		c-0.861-0.099-1.514-0.153-1.961-0.153c-0.37,0-0.915,0.033-1.667,0.099c-0.741,0.065-1.296,0.098-1.656,0.098
		c-0.534,0-0.795-0.239-0.795-0.729c0-2.364,0.109-5.916,0.327-10.645c0.229-4.74,0.338-8.292,0.338-10.646
		c0-6.733-0.24-13.902-0.73-21.518l-0.033-0.513c-0.021-0.425,0.425-0.643,1.34-0.643c1.831,0,4.565-0.044,8.215-0.142
		c3.65-0.098,6.385-0.142,8.193-0.142c4.718,0,8.51,1.133,11.364,3.389c3.148,2.484,4.718,6.014,4.718,10.59
		c0,3.148-0.425,5.633-1.275,7.441c-0.894,1.918-2.55,3.737-4.979,5.459c-0.403,0.272-0.61,0.545-0.61,0.795
		c0,0.295,1.274,3.127,3.824,8.488C243.884,276.775,245.159,279.619,245.159,279.968L245.159,279.968z M236.41,251.008
		c0-3.846-1.111-6.429-3.323-7.725c-1.634-0.959-4.587-1.428-8.836-1.428c-3.454,0-5.208,0.272-5.273,0.828
		c-0.142,1.145-0.218,4.217-0.218,9.218v6.102c0.065,0.043,0.196,0.087,0.414,0.131c0.381,0.043,1.013,0.087,1.885,0.152
		c2.016,0.108,4.206,0.163,6.537,0.163C233.468,258.449,236.41,255.965,236.41,251.008L236.41,251.008z"/>
	<path d="M288.979,279.837c0,0.25-0.261,0.381-0.773,0.381c-0.403,0-0.991-0.032-1.765-0.098s-1.373-0.099-1.776-0.099
		s-1.013,0.033-1.819,0.099s-1.416,0.098-1.819,0.098c-0.589,0-1.352-1.612-2.277-4.837c-0.926-3.226-1.874-4.859-2.833-4.903
		c-0.784-0.032-2.832-0.055-6.155-0.055h-5.045c-3.508,0-5.513,0.022-6.003,0.055c-0.763,0.065-1.58,1.711-2.44,4.925
		c-0.861,3.214-1.525,4.815-1.994,4.815h-7.18c-0.426,0-0.644-0.152-0.644-0.446c0-0.218,0.152-0.687,0.447-1.438l7.822-21.388
		c0.665-1.721,2.659-6.689,6.004-14.904c0.599-1.362,1.405-3.41,2.43-6.156c0.25-0.816,0.522-1.22,0.828-1.22
		c0.402,0,1.002,0.055,1.786,0.163c0.784,0.109,1.384,0.164,1.787,0.164c0.382,0,0.959-0.065,1.743-0.175
		c0.773-0.12,1.34-0.186,1.7-0.186c0.195,0,0.457,0.403,0.806,1.188c0.501,1.188,3.029,7.605,7.562,19.241
		C285.776,271.426,288.979,279.685,288.979,279.837L288.979,279.837z M274.096,262.219c0-0.621-0.947-3.389-2.865-8.302
		c-1.853-4.772-3.16-7.899-3.934-9.381c-4.401,11.233-6.603,17.116-6.603,17.65c0,0.719,0.807,1.144,2.43,1.274
		c0.076,0.021,1.122,0.032,3.127,0.032h3.291C272.582,263.493,274.096,263.068,274.096,262.219L274.096,262.219z"/>
	<path d="M323.256,241.976c0,0.403-0.219,0.61-0.665,0.61c-1.667,0-4.391-0.099-8.171-0.283c-3.541-0.175-6.266-0.24-8.172-0.196
		l-2.331,0.032c-1.493,0.022-2.277,0.055-2.365,0.099c-0.425,0.163-0.643,0.839-0.643,2.005v7.691c0,1.449,0.316,2.18,0.926,2.18
		c2.07,0,5.176-0.099,9.338-0.294c4.162-0.186,7.277-0.284,9.337-0.284c0.447,0,0.676,0.164,0.676,0.513
		c0,0.359-0.032,0.894-0.087,1.612c-0.055,0.708-0.077,1.242-0.077,1.612c0,0.381,0.022,0.959,0.065,1.732
		c0.044,0.784,0.066,1.362,0.066,1.743c0,0.251-0.229,0.382-0.676,0.382c-1.471,0-3.694-0.044-6.69-0.131
		c-2.984-0.076-5.229-0.12-6.711-0.12c-2.746,0-4.304,0.021-4.663,0.055c-0.959,0.108-1.438,0.501-1.438,1.188
		c0,1.917,0.055,4.783,0.163,8.618c0.109,3.824,0.164,6.7,0.164,8.618c0,0.632-0.262,0.959-0.773,0.959
		c-0.425,0-1.058-0.055-1.896-0.142c-0.839-0.099-1.481-0.153-1.929-0.153c-0.37,0-0.915,0.033-1.666,0.099
		c-0.741,0.065-1.297,0.098-1.656,0.098c-0.534,0-0.796-0.229-0.796-0.697c0-2.364,0.099-5.916,0.305-10.666
		c0.196-4.751,0.295-8.303,0.295-10.656c0-2.2-0.218-9.326-0.665-21.387v-0.414c-0.021-0.447,0.24-0.708,0.796-0.773
		c0.174,0,1.525,0.032,4.053,0.098c3.345,0.065,6.439,0.076,9.294,0.032c3.846-0.043,8.749-0.261,14.708-0.643
		c0.807-0.065,1.265,0.294,1.373,1.057c-0.021,0.578,0.021,1.449,0.131,2.615C323.125,240.429,323.256,241.485,323.256,241.976
		L323.256,241.976z"/>
	<path d="M336.21,279.543c0,0.446-0.305,0.675-0.926,0.675c-0.382,0-0.959-0.032-1.755-0.098c-0.784-0.065-1.372-0.099-1.754-0.099
		c-0.403,0-1.002,0.033-1.787,0.099c-0.784,0.065-1.372,0.098-1.754,0.098c-0.533,0-0.795-0.239-0.795-0.729
		c0-2.43,0.108-6.08,0.326-10.972c0.229-4.881,0.338-8.542,0.338-10.993c0-2.364-0.108-5.905-0.338-10.646
		c-0.218-4.739-0.326-8.28-0.326-10.645c0-0.533,0.239-0.795,0.729-0.795c0.403,0,1.024,0.032,1.853,0.087
		c0.828,0.065,1.46,0.099,1.885,0.099c0.382,0,0.959-0.033,1.722-0.099c0.763-0.055,1.34-0.087,1.721-0.087
		c0.557,0,0.829,0.207,0.829,0.632c0,2.386-0.077,5.96-0.251,10.731c-0.174,4.762-0.251,8.335-0.251,10.722
		c0,2.451,0.087,6.123,0.262,11.015C336.124,273.431,336.21,277.102,336.21,279.543L336.21,279.543z"/>
	<path d="M382.407,279.837c0,0.25-0.262,0.381-0.773,0.381c-0.403,0-0.991-0.032-1.766-0.098c-0.773-0.065-1.373-0.099-1.775-0.099
		c-0.403,0-1.014,0.033-1.82,0.099c-0.806,0.065-1.416,0.098-1.819,0.098c-0.588,0-1.351-1.612-2.276-4.837
		c-0.927-3.226-1.874-4.859-2.833-4.903c-0.785-0.032-2.833-0.055-6.156-0.055h-5.045c-3.508,0-5.513,0.022-6.003,0.055
		c-0.763,0.065-1.58,1.711-2.44,4.925s-1.525,4.815-1.994,4.815h-7.18c-0.425,0-0.643-0.152-0.643-0.446
		c0-0.218,0.152-0.687,0.446-1.438l7.823-21.388c0.665-1.721,2.658-6.689,6.003-14.904c0.6-1.362,1.405-3.41,2.43-6.156
		c0.251-0.816,0.523-1.22,0.828-1.22c0.403,0,1.002,0.055,1.787,0.163c0.784,0.109,1.384,0.164,1.787,0.164
		c0.381,0,0.958-0.065,1.743-0.175c0.773-0.12,1.34-0.186,1.699-0.186c0.196,0,0.458,0.403,0.807,1.188
		c0.501,1.188,3.028,7.605,7.561,19.241C379.204,271.426,382.407,279.685,382.407,279.837L382.407,279.837z M367.524,262.219
		c0-0.621-0.948-3.389-2.866-8.302c-1.852-4.772-3.159-7.899-3.933-9.381c-4.401,11.233-6.603,17.116-6.603,17.65
		c0,0.719,0.807,1.144,2.43,1.274c0.076,0.021,1.122,0.032,3.127,0.032h3.29C366.009,263.493,367.524,263.068,367.524,262.219
		L367.524,262.219z"/>
	<path d="M106.937,32.4c0,0.385-0.196,0.573-0.573,0.573c-0.282,0-0.698-0.023-1.256-0.071c-0.557-0.047-0.981-0.071-1.255-0.071
		c-0.275,0-0.699,0.024-1.264,0.071c-0.565,0.047-0.989,0.071-1.264,0.071c-0.385,0-0.573-0.251-0.573-0.762
		c0-1.946,0.063-4.866,0.181-8.759c0.125-3.893,0.188-6.813,0.188-8.759c0-0.291-0.063-0.439-0.188-0.439
		c-0.134,0-0.244,0.086-0.322,0.251c-0.777,1.672-2.629,6.138-5.542,13.391c-0.471,1.389-1.154,3.131-2.049,5.219
		c-0.102,0.196-0.659,0.298-1.656,0.298c-1.436,0-2.236-0.133-2.386-0.393c-0.526-1.24-1.264-2.982-2.229-5.22
		c-1.28-3.038-3.234-7.559-5.863-13.57c-0.047-0.103-0.149-0.212-0.306-0.322c-0.118,0.094-0.181,0.259-0.181,0.51
		c0,1.978,0.031,4.945,0.102,8.901c0.071,3.948,0.102,6.915,0.102,8.893c0,0.51-0.188,0.762-0.573,0.762
		c-0.259,0-0.66-0.023-1.193-0.071c-0.542-0.047-0.934-0.071-1.201-0.071c-0.274,0-0.683,0.024-1.225,0.071
		c-0.549,0.047-0.958,0.071-1.232,0.071c-0.385,0-0.573-0.149-0.573-0.44c0-1.695,0.079-4.246,0.235-7.645
		c0.165-3.391,0.243-5.941,0.243-7.645c0-1.766-0.078-4.411-0.243-7.943c-0.157-3.532-0.235-6.185-0.235-7.943
		c0-0.291,0.173-0.463,0.526-0.51c2.088-0.275,3.658-0.416,4.717-0.416c0.149,0,0.369,0.322,0.644,0.95
		c3.705,8.155,6.899,15.431,9.56,21.844c0.636,1.499,1.005,2.252,1.13,2.252c0.157,0,0.486-0.612,0.989-1.836
		c2.088-4.968,4.977-12.346,8.666-22.126c0.235-0.596,0.487-0.895,0.761-0.895c0.526,0,1.311,0.031,2.354,0.094
		c1.052,0.055,1.837,0.086,2.363,0.086c0.384,0,0.573,0.189,0.573,0.558c0,1.758-0.055,4.411-0.172,7.943
		c-0.118,3.532-0.173,6.177-0.173,7.943c0,1.688,0.063,4.215,0.196,7.59S106.937,30.729,106.937,32.4L106.937,32.4z"/>
	<path d="M118.129,32.487c0,0.322-0.22,0.487-0.667,0.487c-0.275,0-0.691-0.023-1.264-0.071c-0.565-0.047-0.989-0.071-1.264-0.071
		c-0.291,0-0.722,0.024-1.287,0.071c-0.565,0.047-0.989,0.071-1.264,0.071c-0.385,0-0.573-0.173-0.573-0.526
		c0-1.75,0.079-4.38,0.235-7.904c0.165-3.517,0.244-6.154,0.244-7.92c0-1.703-0.079-4.254-0.244-7.668
		c-0.157-3.414-0.235-5.965-0.235-7.668c0-0.385,0.173-0.573,0.526-0.573c0.291,0,0.738,0.023,1.334,0.062
		c0.596,0.047,1.052,0.071,1.358,0.071c0.274,0,0.69-0.023,1.24-0.071c0.549-0.039,0.965-0.062,1.24-0.062
		c0.4,0,0.597,0.149,0.597,0.455c0,1.719-0.055,4.293-0.18,7.731c-0.126,3.431-0.181,6.005-0.181,7.724
		c0,1.766,0.062,4.411,0.188,7.935C118.066,28.083,118.129,30.729,118.129,32.487L118.129,32.487z"/>
	<path d="M148.324,27.66c0,0.188-0.141,0.447-0.439,0.785c-2.982,3.461-6.687,5.196-11.106,5.196c-4.592,0-8.273-1.68-11.036-5.039
		c-2.575-3.124-3.862-7.033-3.862-11.727c0-4.686,1.311-8.61,3.932-11.773C128.6,1.703,132.289,0,136.873,0
		c4.646,0,8.241,1.57,10.784,4.709c0.243,0.322,0.369,0.596,0.369,0.808c0,0.259-0.408,1.028-1.217,2.308
		c-0.816,1.279-1.303,1.923-1.476,1.923c-0.196,0-0.667-0.377-1.397-1.13c-0.911-0.918-1.758-1.609-2.559-2.064
		c-1.318-0.753-2.771-1.13-4.364-1.13c-3.038,0-5.4,1.162-7.088,3.477c-1.499,2.064-2.252,4.67-2.252,7.818
		c0,3.14,0.746,5.769,2.229,7.888c1.688,2.371,4.042,3.563,7.064,3.563c1.5,0,2.951-0.377,4.349-1.13
		c0.918-0.486,1.852-1.185,2.802-2.088c0.801-0.753,1.232-1.13,1.311-1.13c0.094,0,0.596,0.612,1.515,1.829
		C147.869,26.867,148.324,27.542,148.324,27.66L148.324,27.66z"/>
	<path d="M179.877,32.448c0,0.353-0.228,0.526-0.691,0.526c-0.259,0-0.659-0.023-1.208-0.071c-0.542-0.047-0.95-0.071-1.225-0.071
		c-0.298,0-0.738,0.024-1.326,0.071c-0.589,0.047-1.028,0.071-1.319,0.071c-0.353,0-0.534-0.173-0.534-0.526
		c0-1.382,0.047-3.454,0.125-6.208c0.086-2.763,0.133-4.835,0.133-6.209c0-0.604-0.18-0.949-0.534-1.036
		c-0.455-0.125-3.108-0.188-7.959-0.188c-4.827,0-7.479,0.062-7.951,0.188c-0.337,0.087-0.51,0.432-0.51,1.036
		c0,1.342,0.039,3.375,0.118,6.091c0.079,2.715,0.118,4.74,0.118,6.09c0,0.51-0.196,0.762-0.581,0.762
		c-0.291,0-0.722-0.023-1.311-0.071c-0.581-0.047-1.012-0.071-1.311-0.071c-0.275,0-0.683,0.024-1.225,0.071
		c-0.549,0.047-0.958,0.071-1.232,0.071c-0.384,0-0.573-0.173-0.573-0.526c0-1.688,0.079-4.223,0.235-7.606
		c0.165-3.375,0.243-5.91,0.243-7.598c0-1.774-0.078-4.45-0.243-8.014c-0.157-3.563-0.235-6.232-0.235-8.014
		c0-0.338,0.188-0.502,0.573-0.502c0.275,0,0.699,0.023,1.264,0.062c0.565,0.047,0.997,0.071,1.288,0.071
		c0.274,0,0.706-0.023,1.287-0.071c0.581-0.039,1.012-0.062,1.287-0.062c0.353,0,0.534,0.133,0.534,0.408
		c0,1.319-0.062,3.304-0.172,5.95c-0.118,2.645-0.173,4.623-0.173,5.941c0,0.432,0.157,0.69,0.479,0.785
		c0.384,0.133,3.084,0.204,8.092,0.204c4.906,0,7.59-0.071,8.053-0.204c0.353-0.095,0.526-0.424,0.526-0.989
		c0-1.287-0.039-3.226-0.125-5.824c-0.086-2.59-0.125-4.529-0.125-5.816c0-0.306,0.172-0.455,0.526-0.455
		c0.298,0,0.722,0.023,1.279,0.062c0.557,0.047,0.981,0.071,1.279,0.071c0.275,0,0.683-0.023,1.24-0.071
		c0.549-0.039,0.965-0.062,1.24-0.062c0.4,0,0.597,0.165,0.597,0.502c0,1.782-0.079,4.45-0.228,8.014
		c-0.157,3.563-0.228,6.24-0.228,8.014c0,1.688,0.078,4.223,0.251,7.598C179.791,28.225,179.877,30.76,179.877,32.448
		L179.877,32.448z"/>
	<path d="M213.039,32.699c0,0.181-0.188,0.275-0.557,0.275c-0.291,0-0.714-0.023-1.271-0.071c-0.557-0.047-0.989-0.071-1.279-0.071
		s-0.73,0.024-1.311,0.071c-0.581,0.047-1.021,0.071-1.311,0.071c-0.424,0-0.974-1.162-1.641-3.485s-1.35-3.501-2.041-3.532
		c-0.565-0.024-2.041-0.039-4.435-0.039h-3.634c-2.527,0-3.972,0.015-4.325,0.039c-0.549,0.047-1.138,1.232-1.758,3.548
		s-1.099,3.469-1.437,3.469h-5.172c-0.306,0-0.463-0.11-0.463-0.322c0-0.157,0.11-0.495,0.322-1.036l5.636-15.408
		c0.479-1.24,1.915-4.819,4.325-10.737c0.432-0.981,1.013-2.457,1.75-4.435c0.181-0.589,0.377-0.879,0.597-0.879
		c0.291,0,0.722,0.039,1.287,0.117c0.565,0.079,0.997,0.118,1.287,0.118c0.275,0,0.691-0.047,1.256-0.126
		c0.557-0.086,0.965-0.133,1.224-0.133c0.142,0,0.33,0.29,0.581,0.855c0.361,0.855,2.182,5.478,5.447,13.861
		C210.731,26.639,213.039,32.589,213.039,32.699L213.039,32.699z M202.317,20.007c0-0.447-0.683-2.441-2.064-5.98
		c-1.334-3.438-2.276-5.69-2.833-6.758c-3.171,8.092-4.756,12.331-4.756,12.715c0,0.518,0.581,0.824,1.75,0.918
		c0.055,0.016,0.809,0.023,2.252,0.023h2.371C201.226,20.925,202.317,20.619,202.317,20.007L202.317,20.007z"/>
	<path d="M237.316,27.981c0,2.15-0.11,3.673-0.346,4.576c-0.103,0.447-0.369,0.667-0.801,0.667c-1.138,0-2.833-0.062-5.102-0.196
		c-2.276-0.125-3.972-0.196-5.11-0.196c-1.075,0-2.677,0.024-4.804,0.071c-2.135,0.047-3.736,0.071-4.803,0.071
		c-0.385,0-0.581-0.188-0.581-0.573c0-1.672,0.063-4.191,0.173-7.566c0.118-3.375,0.172-5.902,0.172-7.59
		c0-1.774-0.078-4.442-0.243-7.99c-0.157-3.548-0.235-6.208-0.235-7.99c0-0.338,0.188-0.51,0.573-0.51
		c0.275,0,0.699,0.023,1.264,0.071c0.565,0.047,0.997,0.071,1.288,0.071c0.274,0,0.706-0.024,1.287-0.071
		c0.581-0.047,1.012-0.071,1.287-0.071c0.369,0,0.557,0.149,0.557,0.44c0,1.625-0.062,4.073-0.188,7.338
		c-0.118,3.265-0.181,5.714-0.181,7.354c0,0.801,0,2.009,0,3.634c-0.016,1.625-0.023,2.833-0.023,3.634
		c0,3.406,0.133,5.102,0.416,5.102c5.651,0,9.921-0.133,12.802-0.408c0.142-0.016,0.495-0.071,1.06-0.165
		c0.463-0.094,0.816-0.133,1.06-0.133C237.159,27.55,237.316,27.691,237.316,27.981L237.316,27.981z M229.914,15.36
		c0,0.134-0.141,0.275-0.416,0.416c-1.303,0.534-3.234,1.318-5.792,2.339c-2.143,0.895-5.385,2.206-9.702,3.933
		c-0.078,0.031-0.149,0.047-0.212,0.047c-0.196,0-0.369-0.157-0.502-0.479l-0.094-3.705c0-0.181,0.157-0.345,0.463-0.479
		c10.18-4.113,15.29-6.169,15.337-6.169c0.181,0,0.298,0.141,0.345,0.416C229.726,13.751,229.914,14.976,229.914,15.36
		L229.914,15.36z"/>
	<path d="M270.179,3.038c-0.306,0.502-0.722,1.271-1.264,2.3c-0.165,0.471-0.463,1.146-0.895,2.017
		c-0.095,0.142-0.212,0.212-0.369,0.212c0.016,0-0.722-0.274-2.222-0.816c-1.491-0.549-2.723-0.816-3.688-0.816
		c-2.817,0-4.23,1.24-4.23,3.72c0,1.381,0.988,2.582,2.967,3.61c3.328,1.734,5.164,2.731,5.518,2.991
		c1.979,1.578,2.967,3.712,2.967,6.397c0,3.43-1.357,6.138-4.065,8.116c-2.441,1.774-5.439,2.668-8.995,2.668
		c-1.656,0-2.543-0.188-2.669-0.557c-0.062-0.581-0.196-1.429-0.415-2.551c-0.118-0.463-0.314-1.146-0.573-2.073
		c-0.048-0.133-0.071-0.267-0.071-0.384c0-0.22,0.118-0.322,0.346-0.322c0.369,0,0.935,0.031,1.695,0.11
		c0.754,0.079,1.326,0.118,1.711,0.118c4.749,0,7.127-1.53,7.127-4.6c0-1.499-0.957-2.802-2.872-3.908
		c-3.493-1.994-5.282-3.03-5.361-3.108c-1.931-1.562-2.896-3.658-2.896-6.295c0-2.857,0.935-5.141,2.811-6.852
		c1.82-1.656,4.184-2.488,7.079-2.488c1.225,0,2.638,0.204,4.23,0.597c1.735,0.447,3.038,0.981,3.909,1.609
		C270.031,2.794,270.109,2.896,270.179,3.038L270.179,3.038z"/>
	<path d="M293.796,27.707c0,0.534-0.094,1.357-0.298,2.464c-0.196,1.099-0.298,1.931-0.298,2.48c0,0.337-0.181,0.502-0.55,0.502
		c-0.918,0-2.292-0.024-4.105-0.087c-1.812-0.062-3.187-0.094-4.104-0.094h-10.926c-0.424,0-0.683-0.157-0.754-0.463
		c-0.337-1.711-0.51-2.991-0.51-3.838c0-0.165,2.339-3.917,7.001-11.255c4.67-7.339,7.001-11.185,7.001-11.554
		c0-0.173-0.188-0.251-0.572-0.251h-12.253c-0.306,0-0.463-0.157-0.463-0.463c0-0.125,0.11-0.816,0.338-2.096
		c0.22-1.271,0.354-2.009,0.408-2.213c0.055-0.212,0.235-0.314,0.542-0.314c0.596,0,1.482,0.055,2.66,0.165
		c1.17,0.102,2.049,0.157,2.629,0.157h12.92c0.282,0,0.447,0.133,0.51,0.393c0.229,0.934,0.346,2.08,0.346,3.43
		c0,0.086-2.425,3.94-7.275,11.562c-4.859,7.621-7.292,11.545-7.308,11.773c0.078,0.11,0.228,0.165,0.439,0.165
		c4.45,0,7.849-0.094,10.212-0.274c0.306-0.032,0.996-0.118,2.071-0.259c0.871-0.118,1.555-0.181,2.041-0.181
		C293.703,27.456,293.796,27.542,293.796,27.707L293.796,27.707z"/>
	<path d="M319.298,28.351c0,0.243-0.063,0.596-0.181,1.06c-0.142,0.581-0.228,0.934-0.259,1.06c-0.039,0.549-0.149,1.358-0.322,2.41
		c-0.07,0.275-0.274,0.416-0.597,0.416c-0.148,0-0.439-0.031-0.871-0.094c-1.884-0.275-4.804-0.408-8.759-0.408
		c-1.123,0-2.811,0.023-5.063,0.086c-2.252,0.062-3.939,0.094-5.055,0.094c-0.51,0-0.761-0.22-0.761-0.667
		c0-1.719,0.094-4.293,0.29-7.739c0.188-3.438,0.282-6.021,0.282-7.739c0-1.742-0.086-5-0.274-9.772
		c-0.031-1.224-0.117-3.053-0.251-5.494l-0.023-0.322c-0.016-0.354,0.181-0.526,0.597-0.526c1.075,0,2.685,0.031,4.827,0.086
		c2.15,0.063,3.76,0.095,4.835,0.095c1.02,0,2.559-0.032,4.607-0.095c2.048-0.055,3.579-0.086,4.607-0.086
		c0.722,0,1.114,0.22,1.177,0.667c0.322,2.017,0.479,3.281,0.479,3.768c0,0.353-0.164,0.526-0.502,0.526
		c-1.303,0-3.281-0.07-5.926-0.212c-2.638-0.149-4.631-0.22-5.966-0.22c-1.255,0-2.048,0.165-2.378,0.502
		c-0.329,0.337-0.494,1.177-0.494,2.512v3.422c0,0.934,0.023,1.483,0.07,1.633c0.134,0.479,0.534,0.714,1.193,0.714
		c0.188,0,0.447-0.008,0.785-0.024c0.353,0,0.611,0,0.776,0c3.007,0,5.706-0.055,8.101-0.165c0.934-0.024,2.032-0.103,3.304-0.228
		c0.322-0.031,0.487,0.11,0.487,0.417c0,0.486-0.055,1.24-0.173,2.252s-0.173,1.774-0.173,2.276c0,0.274-0.228,0.416-0.69,0.416
		c-0.181,0-0.863-0.055-2.049-0.165c-0.855-0.086-2.786-0.133-5.792-0.133c-2.527,0-4.129,0.031-4.804,0.086
		c-0.612,0.047-0.966,0.369-1.06,0.965c0.016-0.102,0.023,0.486,0.023,1.773v3.407c0,1.593,0.243,2.59,0.737,2.991
		c0.385,0.321,1.343,0.479,2.873,0.479l2.527-0.023c1.075,0,4.089-0.181,9.042-0.55l0.346-0.023
		C319.149,27.746,319.298,27.935,319.298,28.351L319.298,28.351z"/>
	<path d="M361.109,12.488c0,0.118-1.538,3.398-4.599,9.843c-1.028,2.237-2.599,5.572-4.718,10.023
		c-0.196,0.416-0.408,0.62-0.62,0.62h-4.136c-0.291,0-0.534-0.204-0.715-0.62c-1.138-2.669-2.771-6.868-4.897-12.605
		c-1.06,2.826-2.708,7.025-4.944,12.605c-0.165,0.416-0.401,0.62-0.691,0.62h-4.113c-0.234,0-0.447-0.204-0.643-0.62
		c-1.061-2.222-2.646-5.565-4.765-10.023c-2.928-6.107-4.388-9.388-4.388-9.843c0-1.264,0.039-3.155,0.109-5.683
		c0.079-2.527,0.118-4.419,0.118-5.683c0-0.275,0.188-0.408,0.573-0.408c0.274,0,0.698,0.023,1.256,0.062
		c0.557,0.047,0.973,0.071,1.256,0.071c0.259,0,0.651-0.016,1.169-0.047c0.519-0.031,0.911-0.047,1.17-0.047
		c0.321,0,0.486,0.118,0.486,0.346c0,1.248-0.07,3.116-0.22,5.627c-0.142,2.504-0.22,4.38-0.22,5.62
		c0,0.785,1.554,4.325,4.646,10.627c1.028,2.08,1.586,3.124,1.68,3.124c0.031-0.016,0.071-0.071,0.118-0.157
		c0.181-0.353,0.572-1.334,1.169-2.943c1.107-2.991,2.237-6.389,3.407-10.188c0.039-0.385,0.062-1.593,0.062-3.634
		c0-0.902-0.023-2.26-0.079-4.058c-0.055-1.805-0.078-3.156-0.078-4.058c0-0.235,0.157-0.345,0.479-0.345
		c0.299,0,0.73,0.023,1.312,0.062c0.588,0.047,1.027,0.071,1.334,0.071c0.267,0,0.651-0.023,1.178-0.071
		c0.518-0.039,0.91-0.062,1.169-0.062c0.354,0,0.534,0.118,0.534,0.369c0,0.966-0.031,2.418-0.095,4.356
		c-0.062,1.938-0.094,3.391-0.094,4.356c0,1.578,0.008,2.536,0.023,2.873c0.047,0.77,1.2,4.129,3.469,10.094
		c0.252,0.675,0.644,1.64,1.201,2.896c0.016,0.063,0.047,0.118,0.087,0.165c0.094,0,0.643-1.021,1.632-3.061
		c3.022-6.177,4.537-9.663,4.537-10.463c0-1.256-0.071-3.132-0.212-5.635c-0.134-2.496-0.204-4.364-0.204-5.604
		c0-0.235,0.062-0.345,0.181-0.345c0.306,0,0.761,0.023,1.373,0.062c0.604,0.047,1.06,0.071,1.366,0.071
		c0.274,0,0.698-0.023,1.264-0.071c0.564-0.039,0.997-0.062,1.287-0.062c0.321,0,0.51,0.086,0.55,0.275c0-0.016,0,0.196,0,0.643
		c0,1.209,0.039,3.022,0.117,5.424C361.07,9.466,361.109,11.271,361.109,12.488L361.109,12.488z"/>
	<path d="M390.245,27.66c0,0.188-0.141,0.447-0.439,0.785c-2.982,3.461-6.688,5.196-11.106,5.196c-4.592,0-8.272-1.68-11.035-5.039
		c-2.574-3.124-3.862-7.033-3.862-11.727c0-4.686,1.312-8.61,3.933-11.773C370.521,1.703,374.209,0,378.793,0
		c4.646,0,8.241,1.57,10.784,4.709c0.243,0.322,0.369,0.596,0.369,0.808c0,0.259-0.408,1.028-1.217,2.308
		c-0.816,1.279-1.303,1.923-1.476,1.923c-0.196,0-0.667-0.377-1.397-1.13c-0.91-0.918-1.758-1.609-2.559-2.064
		c-1.318-0.753-2.771-1.13-4.364-1.13c-3.037,0-5.399,1.162-7.087,3.477c-1.499,2.064-2.253,4.67-2.253,7.818
		c0,3.14,0.746,5.769,2.229,7.888c1.688,2.371,4.042,3.563,7.063,3.563c1.499,0,2.951-0.377,4.349-1.13
		c0.918-0.486,1.853-1.185,2.802-2.088c0.801-0.753,1.232-1.13,1.312-1.13c0.094,0,0.596,0.612,1.515,1.829
		C389.79,26.867,390.245,27.542,390.245,27.66L390.245,27.66z"/>
	<path d="M412.85,27.707c0,0.534-0.095,1.357-0.299,2.464c-0.196,1.099-0.298,1.931-0.298,2.48c0,0.337-0.181,0.502-0.549,0.502
		c-0.919,0-2.293-0.024-4.105-0.087c-1.813-0.062-3.187-0.094-4.105-0.094h-10.926c-0.424,0-0.683-0.157-0.753-0.463
		c-0.338-1.711-0.511-2.991-0.511-3.838c0-0.165,2.339-3.917,7.002-11.255c4.67-7.339,7.001-11.185,7.001-11.554
		c0-0.173-0.188-0.251-0.573-0.251h-12.252c-0.307,0-0.463-0.157-0.463-0.463c0-0.125,0.109-0.816,0.337-2.096
		c0.22-1.271,0.354-2.009,0.408-2.213c0.056-0.212,0.235-0.314,0.542-0.314c0.597,0,1.483,0.055,2.66,0.165
		c1.17,0.102,2.049,0.157,2.63,0.157h12.919c0.283,0,0.447,0.133,0.511,0.393c0.228,0.934,0.345,2.08,0.345,3.43
		c0,0.086-2.425,3.94-7.275,11.562c-4.858,7.621-7.292,11.545-7.308,11.773c0.079,0.11,0.228,0.165,0.439,0.165
		c4.45,0,7.85-0.094,10.212-0.274c0.306-0.032,0.997-0.118,2.072-0.259c0.871-0.118,1.554-0.181,2.04-0.181
		C412.755,27.456,412.85,27.542,412.85,27.707L412.85,27.707z"/>
	<path d="M441.115,9.379c0,0.872-1.366,3.187-4.098,6.946c-1.806,2.347-3.61,4.694-5.4,7.033c-0.447,0.589-0.667,1.186-0.667,1.797
		c0,0.824,0.039,2.064,0.126,3.712c0.086,1.648,0.125,2.881,0.125,3.689c0,0.274-0.188,0.416-0.572,0.416h-5.479
		c-0.307,0-0.456-0.22-0.456-0.667c0-0.785,0.056-1.97,0.157-3.563c0.11-1.593,0.165-2.794,0.165-3.587
		c0-0.69-0.196-1.303-0.573-1.836c-1.106-1.429-2.755-3.579-4.944-6.444c-1.876-2.559-3.219-4.505-4.051-5.839
		c-0.274-0.463-0.415-0.902-0.415-1.334c-0.024-1.931-0.04-4.717-0.04-8.367c0-0.416,0.181-0.62,0.55-0.62
		c0.259,0,0.644,0.023,1.161,0.062c0.511,0.047,0.903,0.071,1.162,0.071c0.306,0,0.761-0.023,1.381-0.071
		c0.612-0.039,1.075-0.062,1.397-0.062c0.274,0,0.416,0.118,0.416,0.369c0,0.855-0.047,2.143-0.142,3.862
		c-0.086,1.711-0.133,3.006-0.133,3.862c0,0.918,2.425,4.152,7.291,9.701c1.146-1.303,2.465-2.92,3.948-4.851
		c2.072-2.668,3.108-4.27,3.108-4.804c0-0.832-0.062-2.08-0.181-3.759c-0.126-1.68-0.188-2.936-0.188-3.76
		c0-0.416,0.181-0.62,0.526-0.62c0.282,0,0.698,0.023,1.271,0.062c0.564,0.047,0.989,0.071,1.264,0.071
		c0.29,0,0.729-0.023,1.318-0.071c0.589-0.039,1.036-0.062,1.326-0.062c0.369,0,0.55,0.251,0.55,0.753
		c0,0.879,0.016,2.198,0.047,3.956C441.098,7.189,441.115,8.508,441.115,9.379L441.115,9.379z"/>
	<path d="M469.668,31.891c0,0.722-0.22,1.083-0.667,1.083h-5.29c-0.447,0-1.602-1.633-3.47-4.898
		c-1.577-2.763-2.629-4.756-3.154-5.981c-0.519-1.177-0.816-1.837-0.896-1.978c-0.463-0.761-0.997-1.169-1.608-1.216
		c-0.181-0.016-0.699-0.023-1.539-0.023c-1.931,0-2.896,0.235-2.896,0.714c0,1.413,0.048,3.517,0.149,6.327
		c0.095,2.802,0.149,4.905,0.149,6.294c0,0.51-0.196,0.762-0.581,0.762c-0.29,0-0.722-0.023-1.311-0.071
		c-0.581-0.047-1.013-0.071-1.311-0.071c-0.275,0-0.683,0.024-1.225,0.071c-0.55,0.047-0.958,0.071-1.232,0.071
		c-0.385,0-0.573-0.173-0.573-0.526c0-1.688,0.078-4.223,0.235-7.606c0.165-3.375,0.243-5.91,0.243-7.598
		c0-1.774-0.078-4.45-0.243-8.014c-0.157-3.563-0.235-6.232-0.235-8.014c0-0.338,0.188-0.502,0.573-0.502
		c0.274,0,0.698,0.023,1.264,0.062c0.565,0.047,0.997,0.071,1.287,0.071c0.274,0,0.69-0.023,1.24-0.071
		c0.558-0.039,0.966-0.062,1.248-0.062c0.345,0,0.525,0.133,0.525,0.408c0,1.303-0.039,3.265-0.125,5.887
		c-0.087,2.621-0.126,4.592-0.126,5.91c0,0.597,0.039,0.973,0.11,1.13c0.125,0.274,0.439,0.416,0.941,0.416
		c2.975,0,5.157-0.557,6.53-1.656c1.186-0.981,2.3-2.787,3.359-5.408c0.77-2.057,1.539-4.105,2.3-6.162
		c0.11-0.259,0.346-0.44,0.714-0.526c0.244-0.063,1.061-0.094,2.441-0.094c1.68,0,2.527,0.235,2.527,0.714
		c0,0.275-0.353,1.515-1.06,3.721c-0.824,2.575-1.899,4.851-3.218,6.813c-0.871,1.327-2.033,2.668-3.47,4.019
		c-0.368,0.322-0.557,0.612-0.557,0.879c0,0.275,0.62,1.648,1.868,4.113c1.067,2.127,2.04,3.838,2.92,5.125
		c0.965,1.186,2.314,2.999,4.042,5.455C469.629,31.592,469.668,31.741,469.668,31.891L469.668,31.891z"/>
</g>
</svg>
